<?xml version="1.0" encoding="UTF-8" standalone="no"?>
<svg
   xmlns:dc="http://purl.org/dc/elements/1.1/"
   xmlns:cc="http://creativecommons.org/ns#"
   xmlns:rdf="http://www.w3.org/1999/02/22-rdf-syntax-ns#"
   xmlns:svg="http://www.w3.org/2000/svg"
   xmlns="http://www.w3.org/2000/svg"
   xmlns:sodipodi="http://sodipodi.sourceforge.net/DTD/sodipodi-0.dtd"
   xmlns:inkscape="http://www.inkscape.org/namespaces/inkscape"
   inkscape:version="1.0 (4035a4fb49, 2020-05-01)"
   sodipodi:docname="logo.svg"
   xml:space="preserve"
   style="enable-background:new 0 0 1366 768;"
   viewBox="0 0 1366 768"
   y="0px"
   x="0px"
   id="Layer_1"
   version="1.1"><metadata
   id="metadata25"><rdf:RDF><cc:Work
       rdf:about=""><dc:format>image/svg+xml</dc:format><dc:type
         rdf:resource="http://purl.org/dc/dcmitype/StillImage" /><dc:title></dc:title></cc:Work></rdf:RDF></metadata><defs
   id="defs23" /><sodipodi:namedview
   inkscape:current-layer="Layer_1"
   inkscape:window-maximized="1"
   inkscape:window-y="-8"
   inkscape:window-x="3192"
   inkscape:cy="384"
   inkscape:cx="683"
   inkscape:zoom="0.76793558"
   showgrid="false"
   id="namedview21"
   inkscape:window-height="1772"
   inkscape:window-width="3200"
   inkscape:pageshadow="2"
   inkscape:pageopacity="0"
   guidetolerance="10"
   gridtolerance="10"
   objecttolerance="10"
   borderopacity="1"
   bordercolor="#666666"
   pagecolor="#ffffff" />
<style
   id="style2"
   type="text/css">
	.st0{fill:#FFFFFF;}
</style>
<path
   id="path57"
   d="m 861.86756,671.33782 -8.7941,-2.5744 -6.9835,-2.1659 -6.9836,-2.1659 v -30.4782 -30.4782 l 5.8087,-1.8326 5.8087,-1.8326 0.011,-22.6872 0.011,-22.6872 -0.6466,0.2719 -0.6467,0.272 -5.1292,2.1112 -5.1292,2.1113 h -0.1596 -0.1596 l -0.02,-73.5495 -0.02,-73.5495 -0.1568,-0.1567 -0.1567,-0.1568 -16.5195,4.9318 -16.5195,4.9318 -16.295,4.8578 -16.2949,4.8579 -39.31483,11.6958 -39.3148,11.6958 -12.9325,3.9198 -12.9325,3.9197 -3.08727,0.7459 -3.08728,0.7458 -1.82707,-0.3321 -1.82692,-0.3322 -99.06295,-32.8823 -99.06295,-32.8824 -0.65306,-0.2456 -0.65306,-0.2456 0.13576,19.0457 0.13576,19.0456 29.22745,11.0175 29.22745,11.0174 18.82014,7.0922 18.82014,7.0923 -0.37683,16.831 -0.37684,16.831 -0.14887,0.1559 -0.14887,0.156 -6.13789,-2.2954 -6.13788,-2.2955 -24.05445,-9.0786 -24.05445,-9.0786 -28.77267,-10.8487 -28.77267,-10.8486 -1.48938,-0.7742 -1.48938,-0.7743 -1.93133,-1.9377 -1.93132,-1.9378 -1.17248,-2.3795 -1.17247,-2.3795 -0.13417,-79.74255 -0.13416,-79.74257 7.89366,-3.33149 7.89367,-3.3315 7.62547,-3.01798 7.62547,-3.01799 0.39268,0.39254 0.39268,0.39254 0.14267,41.98766 0.14268,41.98766 9.68602,3.18881 9.68603,3.18881 91.87556,30.50866 91.87557,30.5087 18.82663,-5.641 18.82664,-5.641 12.9325,-3.8384 12.9325,-3.8384 29.74475,-8.8663 29.74472,-8.8663 26.1237,-7.7721 26.1236,-7.77199 0.6527,-0.3615 0.6527,-0.3615 v -47.69697 -47.69697 l 0.6418,0.003 0.6417,0.003 15.519,8.94362 15.519,8.94362 0.1304,122.91059 0.1303,122.9105 -5.8206,2.329 -5.8207,2.329 -0.1347,23.0419 -0.1346,23.0419 4.3322,-1.4644 4.3323,-1.4644 1.622,-0.3563 1.622,-0.3562 v 40.1013 40.1014 l -0.388,0.2239 -0.3879,0.224 -8.7941,-2.5744 z m -204.3335,-262.3998 -6.2076,-2.264 -4.91435,-2.0479 -4.91435,-2.0478 -2.97448,-1.3459 -2.97447,-1.3458 V 303.34832 206.81 l -0.67458,0.25886 -0.67457,0.25886 -19.11215,5.79032 -19.11215,5.79032 -17.5882,5.34303 -17.5882,5.34303 -17.0709,5.1786 -17.0709,5.1786 -31.81395,9.6431 -31.81395,9.64311 -9.05275,2.77633 -9.05275,2.77634 -19.91605,6.02213 -19.91605,6.02213 -6.46625,1.98247 -6.46625,1.98248 -7.7595,2.35662 -7.7595,2.35662 -20.43335,6.18781 -20.43335,6.18782 -17.32955,5.27525 -17.32955,5.27525 -2.56245,0.6931 -2.56244,0.69311 -0.0881,-0.11028 -0.0881,-0.11027 -0.19459,-16.52929 -0.19459,-16.5293 3.1038,-0.95442 3.1038,-0.95442 21.98525,-6.65985 21.98525,-6.65985 55.60975,-16.88894 55.60975,-16.88893 31.5553,-9.57762 31.5553,-9.57763 37.2456,-11.29574 37.2456,-11.29575 5.94895,-1.80712 5.94895,-1.80713 20.692,-6.38028 20.692,-6.38027 3.87975,0.0148 3.87975,0.0148 81.99205,26.71499 81.99202,26.71499 16.0363,5.20409 16.0363,5.20408 43.4532,14.12463 43.4532,14.12463 0.2947,16.04439 0.2947,16.04439 0.3825,0.61885 0.3824,0.61884 h -1.4817 -1.4817 l -15.749,-5.12952 -15.7491,-5.12952 -52.7646,-17.15203 -52.7646,-17.15202 -10.0873,-3.28263 -10.0874,-3.28262 -40.09072,-13.01967 -40.09075,-13.01966 -14.74305,-4.79857 -14.74305,-4.79857 -1.15872,-0.36265 -1.15871,-0.36265 -0.13454,99.48413 -0.13453,99.48412 -1.13484,2.4572 -1.13483,2.4572 -0.67572,-0.026 -0.67571,-0.026 -6.2076,-2.2641 z"
   style="fill:#000000;stroke-width:0.5173" />

</svg>
