<svg id="Capa_1" enable-background="new 0 0 512 512" height="512" viewBox="0 0 512 512" width="512" xmlns="http://www.w3.org/2000/svg"><g><path d="m315.5 361.96c-24.813 0-45 20.187-45 45s20.187 45 45 45 45-20.187 45-45-20.188-45-45-45zm0 60c-8.271 0-15-6.729-15-15s6.729-15 15-15 15 6.729 15 15-6.729 15-15 15z"/><path d="m188.44 374.03c-1.277-6.123-6.27-11.002-12.505-11.904-6.201-.897-12.48 2.227-15.425 7.774-2.945 5.546-2.091 12.463 2.11 17.131 4.184 4.65 11.086 6.183 16.85 3.779 6.482-2.703 10.415-9.852 8.97-16.78z"/><path d="m220.42 434.03c-1.157-6.148-6.351-10.978-12.496-11.905-6.198-.935-12.487 2.255-15.434 7.775-2.954 5.533-2.081 12.473 2.11 17.131 4.183 4.648 11.088 6.182 16.85 3.779 6.488-2.705 10.416-9.846 8.97-16.78z"/><path d="m448.293 436.142-115.027-255.326v-150.816h5c8.284 0 15-6.716 15-15s-6.716-15-15-15h-164.533c-8.284 0-15 6.716-15 15s6.716 15 15 15h5v150.817l-115.026 255.325c-7.529 16.712-6.084 35.879 3.865 51.274 9.949 15.394 26.831 24.584 45.16 24.584h286.535c18.329 0 35.212-9.19 45.161-24.585 9.949-15.394 11.394-34.562 3.865-51.273zm-240.883-245.941c.872-1.937 1.324-4.037 1.324-6.161v-154.04h94.533v154.039c0 2.124.451 4.225 1.324 6.161l46.413 103.023h-32.617c-2.206-6.257-5.802-11.99-10.632-16.82-8.499-8.5-19.8-13.18-31.82-13.18s-23.32 4.681-31.82 13.18c-4.83 4.83-8.426 10.563-10.632 16.82h-72.486zm211.822 280.931c-4.463 6.907-11.74 10.868-19.964 10.868h-286.536c-8.224 0-15.501-3.961-19.965-10.868s-5.087-15.169-1.708-22.668l56.422-125.241h98.452c8.284 0 15-6.716 15-15 0-4.007 1.56-7.774 4.393-10.607 5.849-5.849 15.365-5.849 21.214 0 2.833 2.833 4.393 6.6 4.393 10.607 0 8.284 6.716 15 15 15h58.584l56.422 125.241c3.38 7.498 2.757 15.761-1.707 22.668z"/></g></svg>